<?xml version="1.0" encoding="utf-8"?>
<!-- Generator: Adobe Illustrator 25.0.1, SVG Export Plug-In . SVG Version: 6.00 Build 0)  -->
<svg version="1.1" id="Layer_1" xmlns="http://www.w3.org/2000/svg" xmlns:xlink="http://www.w3.org/1999/xlink" x="0px" y="0px"
	 viewBox="0 0 800 800" style="enable-background:new 0 0 800 800;" xml:space="preserve">
<style type="text/css">
	.st0{fill:url(#SVGID_1_);}
	.st1{fill:url(#SVGID_2_);}
</style>
<g>
	<g>
		<linearGradient id="SVGID_1_" gradientUnits="userSpaceOnUse" x1="403.1423" y1="706.2198" x2="750.5914" y2="104.4204">
			<stop  offset="0" style="stop-color:#F15A22"/>
			<stop  offset="0.5241" style="stop-color:#ED1164"/>
			<stop  offset="1" style="stop-color:#602D91"/>
		</linearGradient>
		<path class="st0" d="M505.7,32.5h89.1c13.7,0,27,2.2,39.6,6.6c12.7,4.4,23.8,11.6,33.4,21.5c9.6,9.9,17.2,22.4,22.7,37.6
			c5.5,15.1,8.3,33.4,8.3,54.9v142c0,12.7,3.6,22.8,10.7,30.5c7.1,7.7,15.5,13.5,25.2,17.3c9.6,3.9,19.4,6.3,29.3,7.4
			c9.9,1.1,17.9,1.7,23.9,1.7V446c-6.1,0-14,0.6-23.9,1.7c-9.9,1.1-19.7,3.6-29.3,7.4c-9.6,3.9-18,9.6-25.2,17.3
			c-7.2,7.7-10.7,17.9-10.7,30.5v142.8c0,21.5-2.8,39.7-8.3,54.9c-5.5,15.1-12.9,27.5-22.3,37.1c-9.4,9.6-20.5,16.6-33.4,21
			c-12.9,4.4-27.1,6.6-42.5,6.6h-86.7v-94.1h40.4c12.7,0,22.6-1.7,29.7-5c7.1-3.3,12.5-7.6,16.1-12.8c3.6-5.2,5.8-11,6.6-17.3
			c0.8-6.3,1.2-12.2,1.2-17.7V485.6c0-19.3,2.7-34.4,8.3-45.4c5.5-11,12.2-19.4,20.2-25.2c8-5.8,16.8-9.5,26.4-11.1
			c9.6-1.7,18.8-3,27.6-4.1v-1.7c-8.8-0.5-18-1.7-27.6-3.3c-9.6-1.7-18.4-5.4-26.4-11.1c-8-5.8-14.7-14.2-20.2-25.2
			c-5.5-11-8.3-26.1-8.3-45.4V179.4c0-5.5-0.4-11.4-1.2-17.7c-0.8-6.3-3-12.1-6.6-17.3c-3.6-5.2-9-9.5-16.1-12.8
			c-7.2-3.3-17.1-5-29.7-5h-40.4V32.5z"/>
	</g>
	<linearGradient id="SVGID_2_" gradientUnits="userSpaceOnUse" x1="12.0382" y1="401.038" x2="482.8511" y2="401.038">
		<stop  offset="0" style="stop-color:#602D91"/>
		<stop  offset="0.5152" style="stop-color:#ED1164"/>
		<stop  offset="1" style="stop-color:#F15A22"/>
	</linearGradient>
	<path class="st1" d="M289.4,673.4h-35.5c-12.7,0-22.6-1.7-29.7-5c-7.2-3.3-12.5-7.6-16.1-12.8c-3.6-5.2-5.8-11-6.6-17.3
		c-0.8-6.3-1.2-12.2-1.2-17.7V486.9c0-19.3-2.8-34.4-8.3-45.4c-5.5-11-12.3-19.4-20.2-25.2c-8-5.8-16.8-9.5-26.4-11.1
		c-9.6-1.7-18.9-2.7-27.6-3.3v-1.7c8.8-0.5,18-1.8,27.6-3.7c9.6-1.9,18.4-5.8,26.4-11.6c8-5.8,14.7-14.2,20.2-25.2
		c5.5-11,8.3-26.1,8.3-45.4V181.5c0-5.5,0.4-11.4,1.2-17.7c0.8-6.3,3-12.1,6.6-17.3c3.6-5.2,8.9-9.5,16.1-12.8c7.1-3.3,17-5,29.7-5
		h40.4V34.6h-86.7c-15.4,0-29.6,2.2-42.5,6.6c-12.9,4.4-24.2,11.4-33.8,21c-9.6,9.6-17.1,22-22.3,37.1c-5.2,15.1-7.8,33.4-7.8,54.9
		V297c0,12.7-3.7,22.8-11.1,30.5c-7.4,7.7-16.1,13.5-26,17.3c-9.9,3.9-19.8,6.3-29.7,7.4C24.4,353.5,17,354,12,354v94.1
		c5,0,12.4,0.6,22.3,1.7c9.9,1.1,19.8,3.6,29.7,7.4c9.9,3.9,18.6,9.6,26,17.3c7.4,7.7,11.1,17.9,11.1,30.5v142
		c0,21.5,2.7,39.7,8.3,54.9c5.5,15.1,13.1,27.6,22.7,37.6c9.6,9.9,20.9,17,33.8,21.5c12.9,4.4,26.8,6.6,41.7,6.6h171.8l80.7-252.9
		H331.1L289.4,673.4z M476.6,278.5c-4.2-10.2-10-19-17.5-26.5c-7.5-7.5-16.3-13.3-26.5-17.5c-10.2-4.2-20.9-6.3-32.3-6.3
		c-11.4,0-22.1,2.1-32.3,6.3c-10.2,4.2-19,10-26.5,17.5c-7.5,7.5-13.3,16.3-17.5,26.5c-4.2,10.2-6.3,20.9-6.3,32.3
		c0,11.4,2.1,22.1,6.3,32.3c4.2,10.2,10,19,17.5,26.5c7.5,7.5,16.3,13.3,26.5,17.5c10.2,4.2,20.9,6.3,32.3,6.3
		c11.4,0,22.1-2.1,32.3-6.3c10.2-4.2,19-10,26.5-17.5c7.5-7.5,13.3-16.3,17.5-26.5c4.2-10.2,6.3-20.9,6.3-32.3
		C482.9,299.5,480.7,288.7,476.6,278.5z"/>
</g>
</svg>
